<?xml version="1.0" encoding="iso-8859-1"?>
<!-- Generator: Adobe Illustrator 18.0.0, SVG Export Plug-In . SVG Version: 6.00 Build 0)  -->
<!DOCTYPE svg PUBLIC "-//W3C//DTD SVG 1.1//EN" "http://www.w3.org/Graphics/SVG/1.1/DTD/svg11.dtd">
<svg version="1.1" id="Capa_1" xmlns="http://www.w3.org/2000/svg" xmlns:xlink="http://www.w3.org/1999/xlink" x="0px" y="0px"
	 viewBox="0 0 495.665 495.665" style="enable-background:new 0 0 495.665 495.665; fill:#FBE700;" xml:space="preserve">
<path id="coctail-glass-5" d="M489.745,16.439c0-9.088-7.361-16.439-16.44-16.439H22.355
	C13.28,0,5.92,7.352,5.92,16.439c0,125.069,95.4,228.281,217.253,240.671v171.429c-53.315,5.954-93.321,29.695-93.321,41.846
	c0,13.963,52.814,25.28,117.974,25.28c65.164,0,117.979-11.316,117.979-25.28c0-12.151-40.006-35.893-93.321-41.846V257.11
	C394.345,244.721,489.745,141.508,489.745,16.439z M456.23,32.875c-2.666,34.075-13.58,65.858-30.674,93.42
	c-2.715-1.303-5.426-2.585-8.163-4.014c-44.742-23.598-81.442-17.432-124.694,2.102c-8.723,3.933-18.05,8.024-27.697,8.461
	c-37.823,1.668-65.89-10.356-95.784-33.804C137.244,73.95,83.888,42.667,47.436,75.523c-4.045-13.706-6.855-27.945-8.001-42.648
	H456.23z"/>
<g>
</g>
<g>
</g>
<g>
</g>
<g>
</g>
<g>
</g>
<g>
</g>
<g>
</g>
<g>
</g>
<g>
</g>
<g>
</g>
<g>
</g>
<g>
</g>
<g>
</g>
<g>
</g>
<g>
</g>
</svg>
